<svg fill="none" xmlns="http://www.w3.org/2000/svg" viewBox="0 0 364 220">
    <g filter="url(#filter0_d_765_39414)">
        <g filter="url(#filter1_i_765_39414)">
            <path
                d="M20.954 102.625H342.88v8.407a4 4 0 0 1-2.162 3.552l-156.086 80.772a9.998 9.998 0 0 1-9.28-.046L23.081 114.593a4 4 0 0 1-2.127-3.534v-8.434Z"
                fill="url(#paint0_linear_765_39414)" />
        </g>
        <path
            d="M20.954 102.625H342.88v8.407a4 4 0 0 1-2.162 3.552l-156.086 80.772a9.998 9.998 0 0 1-9.28-.046L23.081 114.593a4 4 0 0 1-2.127-3.534v-8.434Z"
            stroke="#E8E8E8" stroke-width=".5" />
        <g filter="url(#filter2_i_765_39414)">
            <path
                d="M175.763 186.698 22.976 106.884c-2.849-1.488-2.868-5.559-.033-7.073L173.527 19.35a14.618 14.618 0 0 1 13.667-.059l153.811 80.504c2.875 1.504 2.856 5.626-.033 7.104l-156.024 79.837a9.999 9.999 0 0 1-9.185-.038Z"
                fill="url(#paint1_linear_765_39414)" />
        </g>
        <path
            d="M175.763 186.698 22.976 106.884c-2.849-1.488-2.868-5.559-.033-7.073L173.527 19.35a14.618 14.618 0 0 1 13.667-.059l153.811 80.504c2.875 1.504 2.856 5.626-.033 7.104l-156.024 79.837a9.999 9.999 0 0 1-9.185-.038Z"
            stroke="#E8E8E8" stroke-width=".5" />
        <g style="mix-blend-mode:soft-light" filter="url(#filter3_di_765_39414)">
            <path fill-rule="evenodd" clip-rule="evenodd"
                d="M182.155 65.254c9.147 1.729 18.818 5.18 27.056 10.685 7.817 5.224 13.827 12.116 17.133 18.724.584 1.167-.225 2.5-1.807 2.977-1.581.478-3.337-.081-3.921-1.248-2.989-5.972-8.475-12.266-15.561-17.002-7.466-4.99-16.266-8.134-24.588-9.707-1.621-.306-2.556-1.546-2.09-2.769.466-1.223 2.158-1.966 3.778-1.66Zm-2.446 7.861c7.741 1.664 15.919 5.267 21.788 9.19 5.879 3.93 11.396 9.483 14.449 15.028 3.4 6.175 4.648 12.676 3.646 18.677-.209 1.256-1.736 2.182-3.409 2.069-1.673-.113-2.859-1.223-2.65-2.478.859-5.144-.195-10.866-3.245-16.405-2.682-4.871-7.649-9.899-12.947-13.44-5.308-3.547-12.726-6.792-19.506-8.25-7.388-1.588-15.602-1.688-22.226-.503-1.652.295-3.265-.459-3.604-1.685-.338-1.225.728-2.459 2.379-2.754 7.705-1.378 16.986-1.242 25.325.551Zm13.981 15.246c11.624 7.614 16.165 18.91 13.348 28.895-1.478 5.241-4.725 9.333-8.287 12.29-6.065 5.037-15.809 4.194-21.161.617-2.68-1.791-4.862-4.247-5.52-7.083-.678-2.922.317-6.051 3.55-8.899 1.936-1.705 2.276-3.464 1.811-5.105-.49-1.731-1.897-3.329-3.417-4.346-4.137-2.764-9.845-2.342-12.544-.1-2.251 1.869-4.651 5.002-5.74 7.409-1.103 2.44-1.748 5.709-1.465 8.138l.003.029.003.029c.334 4.084 1.679 8.42 5.886 12.924.949 1.017.589 2.446-.804 3.191-1.393.746-3.293.527-4.242-.49-4.949-5.298-6.543-10.46-6.933-15.16-.359-3.153.446-7.051 1.774-9.987 1.347-2.979 4.172-6.688 7.044-9.073 5.402-4.485 15.028-4.468 21.174-.361 2.306 1.541 4.451 3.927 5.237 6.704.812 2.867.152 6.138-3.19 9.082-2.045 1.801-2.489 3.534-2.129 5.084.379 1.636 1.712 3.263 3.658 4.563 3.552 2.374 9.339 2.496 12.532-.156 2.886-2.396 5.56-5.744 6.787-10.093 2.354-8.344-1.422-18.029-11.488-24.622-8.735-5.722-21.74-8.72-33.788-5.768-5.136 1.26-9.719 3.557-13.337 6.744-4.979 4.386-6.332 6.72-8.465 10.68-.637 1.184-2.419 1.79-3.98 1.354-1.561-.435-2.311-1.748-1.673-2.931 2.282-4.238 3.944-7.075 9.521-11.987 4.378-3.857 9.958-6.66 16.216-8.194 14.535-3.562 29.681.112 39.619 6.622Zm-45.508 6.864c9.594-7.947 27.041-7.56 37.759-.398 10.658 7.123 14.192 19.704 3.309 28.741-1.148.953-3.08 1.056-4.315.23-1.236-.825-1.307-2.267-.159-3.22 7.964-6.613 5.925-16.34-2.992-22.3-8.85-5.915-22.371-5.675-29.148-.047l-.019.015-.02.016c-3.856 3.091-6.817 6.52-8.56 11.143-1.778 4.716-1.855 8.676-1.422 11.877.168 1.249-1.055 2.4-2.732 2.57-1.678.169-3.175-.706-3.344-1.955-.495-3.66-.402-8.212 1.625-13.589 2.06-5.463 5.6-9.54 10.018-13.083Zm22.383 12.369c1.235.826 1.306 2.268.158 3.22-2.244 1.864-3.708 4.072-4.476 6.601-.738 2.433-.567 4.659.38 7.122 1.556 3.436 3.175 5.337 6.548 7.474l.015.009.016.011c1.315.857 2.941 1.794 4.34 2.437 1.415.65 1.816 2.052.898 3.133s-2.809 1.43-4.223.78c-1.751-.804-3.633-1.897-5.103-2.854-4.301-2.728-6.458-5.346-8.305-9.444l-.021-.045-.017-.045c-1.203-3.101-1.487-6.126-.48-9.441.982-3.234 2.908-6.198 5.955-8.727 1.148-.953 3.079-1.056 4.315-.231Z"
                fill="#fff" />
        </g>
        <g filter="url(#filter4_i_765_39414)">
            <path fill-rule="evenodd" clip-rule="evenodd"
                d="M182.155 65.254c9.147 1.729 18.818 5.18 27.056 10.685 7.817 5.224 13.827 12.116 17.133 18.724.584 1.167-.225 2.5-1.807 2.977-1.581.478-3.337-.081-3.921-1.248-2.989-5.972-8.475-12.266-15.561-17.002-7.466-4.99-16.266-8.134-24.588-9.707-1.621-.306-2.556-1.546-2.09-2.769.466-1.223 2.158-1.966 3.778-1.66Zm-2.446 7.861c7.741 1.664 15.919 5.267 21.788 9.19 5.879 3.93 11.396 9.483 14.449 15.028 3.4 6.175 4.648 12.676 3.646 18.677-.209 1.256-1.736 2.182-3.409 2.069-1.673-.113-2.859-1.223-2.65-2.478.859-5.144-.195-10.866-3.245-16.405-2.682-4.871-7.649-9.899-12.947-13.44-5.308-3.547-12.726-6.792-19.506-8.25-7.388-1.588-15.602-1.688-22.226-.503-1.652.295-3.265-.459-3.604-1.685-.338-1.225.728-2.459 2.379-2.754 7.705-1.378 16.986-1.242 25.325.551Zm13.981 15.246c11.624 7.614 16.165 18.91 13.348 28.895-1.478 5.241-4.725 9.333-8.287 12.29-6.065 5.037-15.809 4.194-21.161.617-2.68-1.791-4.862-4.247-5.52-7.083-.678-2.922.317-6.051 3.55-8.899 1.936-1.705 2.276-3.464 1.811-5.105-.49-1.731-1.897-3.329-3.417-4.346-4.137-2.764-9.845-2.342-12.544-.1-2.251 1.869-4.651 5.002-5.74 7.409-1.103 2.44-1.748 5.709-1.465 8.138l.003.029.003.029c.334 4.084 1.679 8.42 5.886 12.924.949 1.017.589 2.446-.804 3.191-1.393.746-3.293.527-4.242-.49-4.949-5.298-6.543-10.46-6.933-15.16-.359-3.153.446-7.051 1.774-9.987 1.347-2.979 4.172-6.688 7.044-9.073 5.402-4.485 15.028-4.468 21.174-.361 2.306 1.541 4.451 3.927 5.237 6.704.812 2.867.152 6.138-3.19 9.082-2.045 1.801-2.489 3.534-2.129 5.084.379 1.636 1.712 3.263 3.658 4.563 3.552 2.374 9.339 2.496 12.532-.156 2.886-2.396 5.56-5.744 6.787-10.093 2.354-8.344-1.422-18.029-11.488-24.622-8.735-5.722-21.74-8.72-33.788-5.768-5.136 1.26-9.719 3.557-13.337 6.744-4.979 4.386-6.332 6.72-8.465 10.68-.637 1.184-2.419 1.79-3.98 1.354-1.561-.435-2.311-1.748-1.673-2.931 2.282-4.238 3.944-7.075 9.521-11.987 4.378-3.857 9.958-6.66 16.216-8.194 14.535-3.562 29.681.112 39.619 6.622Zm-45.508 6.864c9.594-7.947 27.041-7.56 37.759-.398 10.658 7.123 14.192 19.704 3.309 28.741-1.148.953-3.08 1.056-4.315.23-1.236-.825-1.307-2.267-.159-3.22 7.964-6.613 5.925-16.34-2.992-22.3-8.85-5.915-22.371-5.675-29.148-.047l-.019.015-.02.016c-3.856 3.091-6.817 6.52-8.56 11.143-1.778 4.716-1.855 8.676-1.422 11.877.168 1.249-1.055 2.4-2.732 2.57-1.678.169-3.175-.706-3.344-1.955-.495-3.66-.402-8.212 1.625-13.589 2.06-5.463 5.6-9.54 10.018-13.083Zm22.383 12.369c1.235.826 1.306 2.268.158 3.22-2.244 1.864-3.708 4.072-4.476 6.601-.738 2.433-.567 4.659.38 7.122 1.556 3.436 3.175 5.337 6.548 7.474l.015.009.016.011c1.315.857 2.941 1.794 4.34 2.437 1.415.65 1.816 2.052.898 3.133s-2.809 1.43-4.223.78c-1.751-.804-3.633-1.897-5.103-2.854-4.301-2.728-6.458-5.346-8.305-9.444l-.021-.045-.017-.045c-1.203-3.101-1.487-6.126-.48-9.441.982-3.234 2.908-6.198 5.955-8.727 1.148-.953 3.079-1.056 4.315-.231Z"
                fill="#fff" />
        </g>
    </g>
    <defs>
        <filter id="filter0_d_765_39414" x=".578" y=".623" width="362.822" height="219.35" filterUnits="userSpaceOnUse"
            color-interpolation-filters="sRGB">
            <feFlood flood-opacity="0" result="BackgroundImageFix" />
            <feColorMatrix in="SourceAlpha" values="0 0 0 0 0 0 0 0 0 0 0 0 0 0 0 0 0 0 127 0" result="hardAlpha" />
            <feOffset dy="3.248" />
            <feGaussianBlur stdDeviation="10" />
            <feComposite in2="hardAlpha" operator="out" />
            <feColorMatrix values="0 0 0 0 1 0 0 0 0 1 0 0 0 0 1 0 0 0 0.25 0" />
            <feBlend in2="BackgroundImageFix" result="effect1_dropShadow_765_39414" />
            <feBlend in="SourceGraphic" in2="effect1_dropShadow_765_39414" result="shape" />
        </filter>
        <filter id="filter1_i_765_39414" x="20.704" y="102.375" width="322.425" height="94.35"
            filterUnits="userSpaceOnUse" color-interpolation-filters="sRGB">
            <feFlood flood-opacity="0" result="BackgroundImageFix" />
            <feBlend in="SourceGraphic" in2="BackgroundImageFix" result="shape" />
            <feColorMatrix in="SourceAlpha" values="0 0 0 0 0 0 0 0 0 0 0 0 0 0 0 0 0 0 127 0" result="hardAlpha" />
            <feOffset dx=".843" dy=".843" />
            <feComposite in2="hardAlpha" operator="arithmetic" k2="-1" k3="1" />
            <feColorMatrix values="0 0 0 0 0.758333 0 0 0 0 0.758333 0 0 0 0 0.758333 0 0 0 1 0" />
            <feBlend in2="shape" result="effect1_innerShadow_765_39414" />
        </filter>
        <filter id="filter2_i_765_39414" x="20.578" y="17.375" width="322.822" height="170.709"
            filterUnits="userSpaceOnUse" color-interpolation-filters="sRGB">
            <feFlood flood-opacity="0" result="BackgroundImageFix" />
            <feBlend in="SourceGraphic" in2="BackgroundImageFix" result="shape" />
            <feColorMatrix in="SourceAlpha" values="0 0 0 0 0 0 0 0 0 0 0 0 0 0 0 0 0 0 127 0" result="hardAlpha" />
            <feOffset dx=".843" dy=".843" />
            <feComposite in2="hardAlpha" operator="arithmetic" k2="-1" k3="1" />
            <feColorMatrix values="0 0 0 0 0.658824 0 0 0 0 0.647059 0 0 0 0 0.647059 0 0 0 1 0" />
            <feBlend in2="shape" result="effect1_innerShadow_765_39414" />
        </filter>
        <filter id="filter3_di_765_39414" x="110.739" y="51.291" width="133.163" height="108.258"
            filterUnits="userSpaceOnUse" color-interpolation-filters="sRGB">
            <feFlood flood-opacity="0" result="BackgroundImageFix" />
            <feColorMatrix in="SourceAlpha" values="0 0 0 0 0 0 0 0 0 0 0 0 0 0 0 0 0 0 127 0" result="hardAlpha" />
            <feOffset dy="3.473" />
            <feGaussianBlur stdDeviation="8.684" />
            <feComposite in2="hardAlpha" operator="out" />
            <feColorMatrix values="0 0 0 0 0.45 0 0 0 0 0.45 0 0 0 0 0.45 0 0 0 0.2 0" />
            <feBlend in2="BackgroundImageFix" result="effect1_dropShadow_765_39414" />
            <feBlend in="SourceGraphic" in2="effect1_dropShadow_765_39414" result="shape" />
            <feColorMatrix in="SourceAlpha" values="0 0 0 0 0 0 0 0 0 0 0 0 0 0 0 0 0 0 127 0" result="hardAlpha" />
            <feOffset dx="-.841" dy=".841" />
            <feGaussianBlur stdDeviation=".841" />
            <feComposite in2="hardAlpha" operator="arithmetic" k2="-1" k3="1" />
            <feColorMatrix values="0 0 0 0 0.320833 0 0 0 0 0.320833 0 0 0 0 0.320833 0 0 0 0.25 0" />
            <feBlend in2="shape" result="effect2_innerShadow_765_39414" />
        </filter>
        <filter id="filter4_i_765_39414" x="127.265" y="65.185" width="99.269" height="74.364"
            filterUnits="userSpaceOnUse" color-interpolation-filters="sRGB">
            <feFlood flood-opacity="0" result="BackgroundImageFix" />
            <feBlend in="SourceGraphic" in2="BackgroundImageFix" result="shape" />
            <feColorMatrix in="SourceAlpha" values="0 0 0 0 0 0 0 0 0 0 0 0 0 0 0 0 0 0 127 0" result="hardAlpha" />
            <feOffset dx="-.841" dy=".841" />
            <feGaussianBlur stdDeviation=".841" />
            <feComposite in2="hardAlpha" operator="arithmetic" k2="-1" k3="1" />
            <feColorMatrix values="0 0 0 0 0.616667 0 0 0 0 0.616667 0 0 0 0 0.616667 0 0 0 1 0" />
            <feBlend in2="shape" result="effect1_innerShadow_765_39414" />
        </filter>
        <linearGradient id="paint0_linear_765_39414" x1="61.86" y1="156.273" x2="295.057" y2="211.49"
            gradientUnits="userSpaceOnUse">
            <stop stop-color="#B3B3B3" />
            <stop offset=".367" stop-color="#A4A4A4" />
            <stop offset=".521" stop-color="#C1C1C1" />
            <stop offset=".654" stop-color="#A4A4A4" />
            <stop offset="1" stop-color="#A4A4A4" />
        </linearGradient>
        <linearGradient id="paint1_linear_765_39414" x1="149.534" y1="27.409" x2="182.059" y2="189.092"
            gradientUnits="userSpaceOnUse">
            <stop stop-color="#B3B3B3" />
            <stop offset=".245" stop-color="#A8A4A4" />
            <stop offset=".49" stop-color="#A4A4A4" />
            <stop offset=".691" stop-color="#C1C1C1" />
            <stop offset="1" stop-color="#A4A4A4" />
        </linearGradient>
    </defs>
</svg>